<?xml version="1.0" encoding="UTF-8"?>
<svg width="361pt" height="64pt" style="isolation:isolate" viewBox="0 0 361 64" xmlns="http://www.w3.org/2000/svg">
<defs>
<clipPath id="a">
<rect width="361" height="64"/>
</clipPath>
</defs>
<g clip-path="url(#a)">
<g fill-rule="evenodd">
<path d="m314.27 1.468-5.347 24.299 9.071 13.798c0.893-6.285 2.944-12.22 8.724-17.012l-12.448-21.085z" fill="#c9b473"/>
<path d="m350.57 22.917-17.497 16.434-15.079 0.214c0.876-6.31 3.099-12.195 8.724-17.012l23.852 0.364z" fill="#ff8a00"/>
<path d="m333.18 13.936-2.31 8.975c-6.026 3.408-10.462 9.707-11.392 17.322-0.527 4.33 0.147 8.518 1.752 12.2-2.873-4.451-4.431-10.048-4.082-16.031 0.631-10.815 7.311-19.655 16.032-22.466z" fill="#8f2208"/>
<path d="m311.4 14.491c2.91 5.558 7.341 11.088 11.274 13.978 6.465 4.749 14.324 5.51 19.369 2.344-4.966 4.369-14.457 5.205-21.648 0.766-3.432-2.121-7.347-6.009-10.491-10.288l1.496-6.8z" fill="#8f2208"/>
</g>
<g>
<path d="m46.644 2.772c0.743 0.152 1.375 0.231 1.897 0.231 0.86 0 1.444-0.085 1.731-0.344 0.29-0.265 0.49-0.752 0.646-1.439 0.049-0.214 0.239-0.366 0.458-0.366h0.63c0.128 0 0.25 0.05 0.339 0.143 0.088 0.093 0.135 0.214 0.13 0.344l-0.551 14.274c-0.01 0.253-0.217 0.45-0.469 0.45h-0.67c-0.228 0-0.424-0.163-0.462-0.388-0.482-2.817-1.767-5.203-3.855-7.158-2.116-1.981-4.546-3.426-7.29-4.339-2.757-0.915-5.333-1.374-7.728-1.374-3.261 0-6.322 0.707-9.184 2.121-2.867 1.417-5.341 3.417-7.424 5.997-2.092 2.592-3.718 5.708-4.88 9.339-1.167 3.645-1.75 7.606-1.75 11.879 0 4.141 0.563 7.978 1.691 11.516 1.123 3.522 2.76 6.581 4.915 9.17 2.146 2.583 4.631 4.535 7.458 5.859 2.828 1.321 5.965 1.983 9.41 1.983 2.894 0 6.071-0.608 9.533-1.82 3.452-1.208 6.568-3.219 9.351-6.031 0.134-0.135 0.336-0.177 0.512-0.104s0.291 0.245 0.291 0.434v2.313c0 0.143-0.065 0.278-0.177 0.366-3.528 2.814-6.759 4.873-9.69 6.186-2.953 1.321-6.632 1.986-11.041 1.986-4.639 0-8.872-0.873-12.698-2.617-3.829-1.744-7.064-4.102-9.706-7.071-2.638-2.963-4.637-6.299-5.997-10.003-1.358-3.702-2.037-7.516-2.037-11.437 0-5.893 1.412-11.37 4.234-16.429 2.823-5.059 6.646-9.065 11.467-12.015 4.827-2.952 10.068-4.428 15.722-4.428 3.477 0 7.181 0.532 11.11 1.6h6e-3l4.078 1.172z"/>
<path d="m109.51 32.142c0-4.713-0.783-9.042-2.344-12.986-1.565-3.953-3.721-7.37-6.465-10.249-2.749-2.887-5.852-5.09-9.308-6.614-3.462-1.53-7.073-2.293-10.834-2.293-3.835 0-7.515 0.8-11.04 2.394-3.517 1.595-6.65 3.846-9.396 6.759-2.745 2.907-4.882 6.318-6.409 10.228-1.526 3.905-2.29 8.079-2.29 12.519 0 5.783 1.285 11.127 3.853 16.035 2.571 4.912 6.094 8.817 10.566 11.713 4.482 2.901 9.411 4.352 14.79 4.352 5.355 0 10.237-1.451 14.645-4.355 4.398-2.896 7.871-6.786 10.417-11.671 2.544-4.879 3.815-10.158 3.815-15.832zm-7.398 0.164c0 5.453-0.656 10.073-1.974 13.857-1.309 3.752-3.008 6.724-5.108 8.913-2.09 2.177-4.393 3.749-6.913 4.713-2.525 0.963-5.019 1.447-7.484 1.447-2.753 0-5.403-0.521-7.952-1.566-2.544-1.042-4.871-2.746-6.986-5.11-2.126-2.375-3.791-5.442-5.005-9.2-1.222-3.784-1.83-8.218-1.83-13.299 0-5.773 0.733-10.626 2.209-14.556 1.463-3.896 3.323-6.921 5.59-9.068 2.257-2.138 4.578-3.614 6.966-4.42 2.396-0.806 4.707-1.211 6.934-1.211 2.875 0 5.941 0.752 9.2 2.248 3.252 1.493 6.11 4.442 8.596 8.828 2.513 4.431 3.757 10.575 3.757 18.424z"/>
<path d="m297.92 56.152c0.019 0.149-0.031 0.301-0.147 0.405-1.217 1.133-2.53 2.161-3.938 3.088-4.409 2.904-9.291 4.355-14.646 4.355-5.377 0-10.307-1.451-14.789-4.352-4.473-2.896-7.995-6.801-10.567-11.713-2.566-4.908-3.853-10.252-3.853-16.035 0-4.44 0.766-8.614 2.29-12.519 1.527-3.91 3.665-7.321 6.409-10.228 2.746-2.913 5.879-5.164 9.397-6.759 3.524-1.594 7.203-2.394 11.04-2.394 3.761 0 7.372 0.763 10.834 2.293 3.457 1.524 6.558 3.727 9.308 6.614 2.743 2.879 4.898 6.296 6.465 10.249 1.56 3.944 2.343 8.273 2.343 12.986 0 2.319-0.211 4.569-0.636 6.753-0.017 0.09-0.059 0.172-0.121 0.233h-6.863l-0.011-0.011c-0.09-0.101-0.132-0.234-0.115-0.366 0.233-2.003 0.349-4.149 0.349-6.445 0-7.849-1.242-13.993-3.755-18.424-2.488-4.386-5.347-7.335-8.598-8.828-3.259-1.496-6.324-2.248-9.2-2.248-2.228 0-4.538 0.405-6.933 1.211-2.388 0.806-4.71 2.282-6.966 4.42-2.268 2.147-4.127 5.172-5.592 9.068-1.476 3.93-2.208 8.783-2.208 14.556 0 5.081 0.608 9.515 1.831 13.299 1.211 3.758 2.879 6.825 5.005 9.2 2.113 2.364 4.44 4.068 6.984 5.11 2.549 1.045 5.2 1.566 7.952 1.566 2.465 0 4.961-0.484 7.485-1.447 2.085-0.798 4.02-2.012 5.809-3.637h5.437z"/>
<path d="m119.76 33.345v21.387c0 1.972 0.482 3.476 1.484 4.496 1.009 1.02 2.527 1.541 4.544 1.603 0.254 8e-3 0.454 0.217 0.454 0.47v0.648c0 0.259-0.209 0.471-0.468 0.471h-19.003c-0.26 0-0.471-0.212-0.471-0.471v-0.648c0-0.25 0.197-0.459 0.448-0.47 1.127-0.051 2.127-0.259 2.997-0.631 0.837-0.355 1.527-0.975 2.079-1.848 0.567-0.896 0.837-2.104 0.837-3.62v-45.177c0-2.203-0.499-3.769-1.575-4.67-1.067-0.896-2.236-1.35-3.507-1.35h-0.808c-0.26 0-0.471-0.211-0.471-0.47v-0.851c0-0.259 0.211-0.47 0.471-0.47h20.665c3.397 0 6.276 0.532 8.637 1.583 2.386 1.062 4.24 2.411 5.564 4.045 1.324 1.631 2.267 3.352 2.839 5.164 0.569 1.805 0.851 3.583 0.851 5.332 0 2.231-0.465 4.37-1.397 6.42-0.938 2.054-2.375 3.826-4.319 5.308-1.687 1.29-3.744 2.219-6.163 2.789 3.273 1.881 6.327 5.205 9.141 9.983 0 0 5.389 9.124 5.389 9.122 2.383 4.005 4.284 6.546 5.73 7.608 1.391 1.023 2.766 1.606 4.121 1.736 0.239 0.022 0.425 0.225 0.425 0.467v0.648c0 0.259-0.211 0.471-0.47 0.471h-10.86c-0.143 0-0.282-0.068-0.372-0.183-0.462-0.598-0.895-1.175-1.304-1.733-0.403-0.555-0.837-1.141-1.293-1.763-6e-3 -6e-3 -8e-3 -0.012-0.014-0.017-0.27-0.409-0.67-1.026-1.2-1.854-0.496-0.775-0.786-1.22-0.89-1.321-0.026-0.025-0.048-0.056-0.068-0.087 0 0-7.133-11.804-7.133-11.807-1.411-2.366-2.85-4.29-4.326-5.766-1.457-1.459-2.812-2.507-4.071-3.135-1.248-0.626-2.369-1.017-3.366-1.175-0.905-0.138-1.947-0.217-3.127-0.234zm0-2.524h2.935c3.488 0 6.347-0.493 8.578-1.499 2.18-0.98 3.763-2.374 4.744-4.194 0.994-1.845 1.484-4.105 1.484-6.772 0-2.237-0.448-4.429-1.343-6.572-0.882-2.124-2.389-3.905-4.51-5.35-2.136-1.453-5.015-2.169-8.629-2.169-1.29 0-2.375 0.09-3.259 0.27v26.286z"/>
<path d="m172.55 33.345v21.387c0 1.972 0.479 3.476 1.485 4.496 1.008 1.02 2.526 1.541 4.543 1.603 0.254 8e-3 0.454 0.217 0.454 0.47v0.648c0 0.259-0.208 0.471-0.468 0.471h-19.003c-0.259 0-0.471-0.212-0.471-0.471v-0.648c0-0.25 0.198-0.459 0.448-0.47 1.127-0.051 2.127-0.259 2.998-0.631 0.833-0.355 1.524-0.975 2.076-1.848 0.569-0.896 0.839-2.104 0.839-3.62v-45.177c0-2.203-0.498-3.769-1.575-4.67-1.07-0.896-2.236-1.35-3.507-1.35h-0.808c-0.259 0-0.471-0.211-0.471-0.47v-0.851c0-0.259 0.212-0.47 0.471-0.47h20.663c3.4 0 6.279 0.532 8.639 1.583 2.386 1.062 4.24 2.411 5.564 4.045 1.321 1.631 2.268 3.352 2.839 5.164 0.569 1.805 0.851 3.583 0.851 5.332 0 2.231-0.465 4.37-1.4 6.42-0.935 2.054-2.372 3.826-4.316 5.308-1.687 1.29-3.743 2.219-6.166 2.789 3.276 1.881 6.33 5.205 9.144 9.983 0 0 5.389 9.124 5.386 9.122 2.386 4.005 4.288 6.546 5.73 7.608 1.394 1.023 2.766 1.606 4.124 1.736 0.24 0.022 0.425 0.225 0.425 0.467v0.648c0 0.259-0.211 0.471-0.47 0.471h-10.86c-0.146 0-0.281-0.068-0.371-0.183-0.462-0.598-0.896-1.175-1.305-1.733-0.403-0.555-0.836-1.141-1.296-1.763-2e-3 -6e-3 -8e-3 -0.012-0.011-0.017-0.273-0.409-0.67-1.026-1.2-1.854-0.496-0.775-0.789-1.22-0.89-1.321-0.025-0.025-0.048-0.056-0.068-0.087 0 0-7.132-11.804-7.135-11.807-1.409-2.366-2.848-4.29-4.324-5.766-1.457-1.459-2.812-2.507-4.071-3.135-1.248-0.626-2.369-1.017-3.369-1.175-0.901-0.138-1.944-0.217-3.124-0.234zm0-2.524h2.935c3.485 0 6.347-0.493 8.578-1.499 2.181-0.98 3.764-2.374 4.744-4.194 0.994-1.845 1.485-4.105 1.485-6.772 0-2.237-0.448-4.429-1.344-6.572-0.885-2.124-2.389-3.905-4.51-5.35-2.135-1.453-5.014-2.169-8.629-2.169-1.29 0-2.374 0.09-3.259 0.27v26.286z"/>
<path d="m225.71 30.739h10.421c2.084 0 3.946-0.335 5.586-1.017 1.549-0.642 2.397-2.138 2.617-4.436 0.022-0.243 0.225-0.426 0.467-0.426h0.606c0.259 0 0.468 0.212 0.468 0.471v13.544c0 0.259-0.209 0.47-0.468 0.47h-0.606c-0.231 0-0.428-0.169-0.465-0.397-0.225-1.442-0.642-2.552-1.27-3.324-0.611-0.752-1.211-1.259-1.811-1.507-0.592-0.242-1.116-0.369-1.575-0.369-0.025 0-0.054-3e-3 -0.079-6e-3 -0.944-0.157-1.924-0.236-2.947-0.236h-10.944v20.739c0 1.51 0.282 2.817 0.854 3.918 0.544 1.042 1.828 1.493 3.8 1.493h8.831c2.046 0 3.73-0.293 5.048-0.89 1.293-0.586 2.313-1.4 3.06-2.442 0.769-1.076 1.411-2.375 1.935-3.894 0.065-0.191 0.242-0.318 0.442-0.318h0.567c0.14 0 0.276 0.065 0.366 0.175 0.087 0.112 0.121 0.256 0.093 0.394l-2.06 9.37c-0.045 0.214-0.236 0.369-0.456 0.369h-35.41c-0.259 0-0.47-0.212-0.47-0.471v-0.648c0-0.259 0.211-0.47 0.47-0.47h0.806c1.163 0 2.293-0.485 3.406-1.428 1.121-0.953 1.651-2.519 1.651-4.671v-45.016c0-1.744-0.386-3.259-1.164-4.541-0.741-1.22-2.048-1.803-3.893-1.803h-0.806c-0.259 0-0.47-0.208-0.47-0.468v-0.69c0-0.259 0.211-0.47 0.47-0.47h35.41c0.259 0 0.468 0.211 0.468 0.47v9.409c0 0.259-0.209 0.47-0.468 0.47h-0.566c-0.259 0-0.471-0.211-0.471-0.47 0-1.879-0.484-3.389-1.481-4.516-1.53-1.732-4.223-2.558-8.048-2.558h-11.914v26.19z"/>
</g>
<path d="m277.78 41.464c0 0.165 0.125 0.293 0.292 0.293h0.209c0.209 0 0.397 0.036 0.564 0.128 0.167 0.073 0.292 0.201 0.375 0.365 0.105 0.183 0.167 0.421 0.167 0.696v9.933c0 0.292-0.104 0.548-0.292 0.804-0.188 0.238-0.459 0.348-0.814 0.348h-0.209c-0.167 0-0.292 0.128-0.292 0.293v0.146c0 0.165 0.125 0.293 0.292 0.293h6.743c1.086 0 1.963-0.073 2.61-0.238s1.211-0.366 1.733-0.64c0.584-0.311 1.085-0.659 1.524-1.061 0.459-0.384 0.835-0.824 1.148-1.299 0.334-0.494 0.584-1.025 0.751-1.592s0.251-1.17 0.251-1.792c0-0.641-0.084-1.244-0.251-1.83-0.188-0.603-0.438-1.17-0.793-1.701-0.355-0.53-0.772-1.006-1.273-1.445-0.272-0.256-0.627-0.512-1.023-0.768-0.418-0.256-0.898-0.476-1.462-0.695-0.563-0.202-1.19-0.366-1.879-0.494-0.709-0.128-1.461-0.183-2.296-0.183h-5.783c-0.167 0-0.292 0.128-0.292 0.293v0.146zm3.737 0.732v10.17c0 0.421 0.063 0.75 0.23 0.952 0.146 0.182 0.375 0.292 0.688 0.347 0.376 0.073 0.94 0.11 1.671 0.11 1.064 0 1.962-0.092 2.693-0.275 0.689-0.182 1.377-0.567 2.025-1.189 0.501-0.457 0.897-1.006 1.19-1.664 0.292-0.659 0.438-1.464 0.438-2.415 0-0.75-0.125-1.482-0.355-2.232-0.25-0.713-0.605-1.371-1.106-1.939-0.543-0.64-1.253-1.134-2.109-1.5-0.877-0.365-1.941-0.548-3.173-0.548-0.585 0-1.315 0.055-2.192 0.183z" fill-rule="evenodd"/>
<path d="m297.57 47.405h2.459c0.508 0 0.958-0.071 1.358-0.214 0.327-0.119 0.496-0.397 0.541-0.82 0.017-0.149 0.144-0.262 0.293-0.262h0.152c0.164 0 0.293 0.132 0.293 0.293v2.986c0 0.161-0.129 0.293-0.293 0.293h-0.152c-0.144 0-0.265-0.104-0.29-0.242-0.048-0.273-0.135-0.488-0.27-0.634-0.133-0.141-0.26-0.239-0.389-0.285-0.13-0.047-0.245-0.073-0.347-0.073-0.014 0-0.028 0-0.042-3e-3 -0.231-0.033-0.47-0.05-0.721-0.05h-2.592v4.377c0 0.293 0.062 0.547 0.189 0.761 0.045 0.076 0.124 0.124 0.228 0.163 0.152 0.054 0.347 0.079 0.583 0.079h2.234c0.493 0 0.899-0.059 1.217-0.186 0.296-0.115 0.533-0.276 0.702-0.484 0.183-0.223 0.335-0.49 0.459-0.806 0.045-0.113 0.152-0.186 0.273-0.186h0.141c0.093 0 0.177 0.042 0.234 0.113 0.053 0.073 0.073 0.163 0.05 0.253l-0.518 2.062c-0.034 0.13-0.149 0.223-0.285 0.223h-8.949c-0.164 0-0.293-0.132-0.293-0.293v-0.144c0-0.163 0.129-0.293 0.293-0.293h0.203c0.262 0 0.515-0.098 0.763-0.281 0.24-0.178 0.341-0.474 0.341-0.874v-9.913c0-0.341-0.085-0.636-0.259-0.887-0.161-0.228-0.448-0.321-0.845-0.321h-0.203c-0.164 0-0.293-0.13-0.293-0.293v-0.152c0-0.161 0.129-0.293 0.293-0.293h8.949c0.161 0 0.293 0.132 0.293 0.293v2.073c0 0.161-0.132 0.293-0.293 0.293h-0.143c-0.161 0-0.293-0.132-0.293-0.293 0-0.961-0.775-1.369-2.234-1.369h-2.837v5.389z"/>
<path d="m304.71 54.033c-0.161 0-0.293 0.13-0.293 0.293v0.144c0 0.161 0.132 0.293 0.293 0.293h9.096c0.132 0 0.248-0.09 0.284-0.217l0.581-2.163c0.022-0.088 5e-3 -0.181-0.051-0.254s-0.141-0.115-0.234-0.115h-0.175c-0.115 0-0.219 0.067-0.267 0.169-0.195 0.419-0.383 0.746-0.572 0.974-0.169 0.206-0.397 0.355-0.685 0.454-0.318 0.11-0.746 0.163-1.278 0.163h-1.319c-0.679 0-1.172-0.084-1.47-0.282-0.259-0.174-0.367-0.495-0.367-0.943v-9.603c0-0.434 0.105-0.741 0.361-0.902 0.29-0.183 0.623-0.276 0.994-0.287 0.161-3e-3 0.285-0.135 0.285-0.293v-0.152c0-0.161-0.13-0.293-0.293-0.293h-4.89c-0.161 0-0.293 0.132-0.293 0.293v0.152c0 0.158 0.126 0.29 0.284 0.293 0.383 0.011 0.716 0.104 0.995 0.29 0.25 0.166 0.352 0.473 0.352 0.899v9.932c0 0.364-0.104 0.648-0.333 0.848-0.231 0.203-0.495 0.307-0.797 0.307h-0.208z"/>
<path d="m322.37 54.309c-0.036 0.091-0.084 0.254-0.144 0.491-0.031 0.129-0.149 0.222-0.284 0.222h-0.172c-0.163 0-0.293-0.132-0.293-0.296v-3.293c0-0.163 0.13-0.296 0.293-0.296h0.172c0.135 0 0.253 0.093 0.284 0.223 0.226 0.89 0.66 1.563 1.313 2.02 0.659 0.462 1.465 0.687 2.409 0.687 0.704 0 1.267-0.107 1.69-0.338 0.397-0.217 0.679-0.473 0.831-0.783 0.155-0.316 0.234-0.628 0.234-0.941 0-0.651-0.223-1.183-0.673-1.594-0.496-0.451-1.254-0.91-2.268-1.386-0.727-0.347-1.265-0.617-1.617-0.812-0.361-0.197-0.73-0.456-1.102-0.774-0.388-0.33-0.695-0.719-0.924-1.167-0.231-0.45-0.346-0.971-0.346-1.557 0-0.676 0.2-1.322 0.608-1.938 0.4-0.609 0.967-1.096 1.705-1.463 0.724-0.363 1.546-0.546 2.465-0.546 0.684 0 1.388 0.101 2.107 0.307 0.014 3e-3 0.025 8e-3 0.039 0.014 0.079 0.034 0.186 0.045 0.321 0.045 0.096 0 0.141-0.079 0.178-0.194 0.036-0.121 0.152-0.206 0.279-0.206h0.163c0.163 0 0.296 0.13 0.296 0.293v2.812c0 0.163-0.133 0.295-0.296 0.295h-0.163c-0.144 0-0.268-0.107-0.291-0.25-0.084-0.572-0.371-1.071-0.856-1.499-0.49-0.437-1.138-0.645-1.941-0.645-0.527 0-0.994 0.107-1.403 0.324-0.397 0.211-0.707 0.498-0.924 0.862-0.219 0.369-0.326 0.789-0.326 1.262 0 0.366 0.064 0.69 0.194 0.972 0.127 0.281 0.318 0.529 0.572 0.743 0.27 0.231 0.589 0.448 0.958 0.648 0.383 0.212 0.904 0.476 1.555 0.795 1.129 0.541 2.008 1.087 2.633 1.625 0.677 0.583 1.02 1.378 1.02 2.389 0 0.614-0.177 1.209-0.541 1.778-0.355 0.563-0.89 1.028-1.608 1.388-0.702 0.35-1.572 0.53-2.609 0.53-0.645 0-1.214-0.059-1.71-0.18-0.487-0.119-0.977-0.285-1.476-0.496-0.157-0.045-0.262-0.073-0.321-0.073-8e-3 0-0.02 0-0.031 2e-3z"/>
<path d="m343.02 53.208c-0.411 0.538-0.932 0.958-1.558 1.256-0.895 0.431-1.834 0.645-2.811 0.645-1.104 0-2.099-0.233-2.983-0.701-0.896-0.476-1.552-1.065-1.972-1.761-0.304-0.498-0.493-1.019-0.572-1.56-0.076-0.519-0.115-1.054-0.115-1.612v-6.546c0-0.33-0.071-0.606-0.217-0.829-0.062-0.09-0.169-0.154-0.31-0.208-0.192-0.07-0.44-0.113-0.741-0.135-0.155-0.012-0.273-0.138-0.273-0.293v-0.152c0-0.161 0.132-0.293 0.293-0.293h4.665c0.16 0 0.293 0.132 0.293 0.293v0.152c0 0.149-0.116 0.276-0.265 0.293-0.31 0.031-0.564 0.084-0.761 0.166-0.155 0.059-0.267 0.132-0.335 0.231-0.155 0.231-0.231 0.49-0.231 0.775v6.439c0 1.254 0.135 2.178 0.422 2.775 0.299 0.614 0.744 1.093 1.336 1.437 0.6 0.352 1.284 0.524 2.048 0.524 0.324 0 0.71-0.051 1.155-0.152 0.436-0.102 0.848-0.268 1.231-0.502 1.141-0.693 1.701-1.805 1.701-3.329v-7.192c0-0.302-0.076-0.569-0.231-0.8-0.065-0.099-0.18-0.167-0.335-0.226-0.2-0.076-0.456-0.121-0.775-0.146-0.152-0.012-0.27-0.141-0.27-0.293v-0.152c0-0.161 0.132-0.293 0.293-0.293h4.744c0.163 0 0.293 0.132 0.293 0.293v0.152c0 0.158-0.122 0.287-0.279 0.293-0.305 0.014-0.555 0.056-0.752 0.129-0.15 0.06-0.265 0.136-0.333 0.243-0.163 0.259-0.248 0.518-0.248 0.783v9.966c0 0.276 0.045 0.496 0.15 0.657 0.095 0.146 0.228 0.248 0.397 0.31 0.217 0.079 0.484 0.14 0.8 0.191 0.141 0.023 0.245 0.147 0.245 0.29v0.144c0 0.161-0.13 0.293-0.293 0.293h-3.113c-0.16 0-0.293-0.132-0.293-0.293v-1.262z"/>
<path d="m351.29 48.363v4.515c0 0.369 0.096 0.654 0.31 0.845 0.228 0.203 0.577 0.296 1.036 0.31 0.158 3e-3 0.285 0.133 0.285 0.293v0.144c0 0.161-0.132 0.293-0.293 0.293h-4.78c-0.164 0-0.293-0.132-0.293-0.293v-0.144c0-0.157 0.123-0.287 0.281-0.293 0.265-0.011 0.499-0.053 0.704-0.129 0.178-0.065 0.324-0.181 0.44-0.344 0.121-0.169 0.175-0.397 0.175-0.682v-9.949c0-0.409-0.091-0.705-0.319-0.871-0.239-0.174-0.501-0.265-0.786-0.265h-0.202c-0.164 0-0.293-0.132-0.293-0.293v-0.188c0-0.161 0.129-0.293 0.293-0.293h5.197c0.879 0 1.622 0.121 2.234 0.36 0.628 0.243 1.112 0.558 1.462 0.936 0.352 0.38 0.603 0.78 0.755 1.202 0.152 0.42 0.225 0.834 0.225 1.243 0 0.524-0.124 1.025-0.372 1.507-0.25 0.479-0.631 0.893-1.149 1.236-0.327 0.22-0.71 0.395-1.144 0.524 0.688 0.448 1.338 1.116 1.944 2.017l1.355 2.009c0.58 0.854 1.037 1.397 1.389 1.625 0.326 0.209 0.645 0.33 0.96 0.355 0.152 0.014 0.271 0.141 0.271 0.293v0.144c0 0.161-0.133 0.293-0.293 0.293h-2.733c-0.084 0-0.163-0.037-0.219-0.101-0.119-0.133-0.229-0.26-0.333-0.384-0.101-0.124-0.208-0.25-0.324-0.388-3e-3 -3e-3 -5e-3 -9e-3 -0.011-0.012-0.068-0.09-0.169-0.228-0.304-0.411-0.102-0.144-0.197-0.262-0.203-0.267-0.017-0.015-0.028-0.031-0.04-0.048 0 0-1.794-2.598-1.794-2.6-0.346-0.508-0.699-0.919-1.059-1.234-0.349-0.307-0.676-0.53-0.978-0.662-0.298-0.133-0.566-0.214-0.805-0.248-0.175-0.023-0.369-0.037-0.589-0.045zm0-0.941h0.563c0.854 0 1.552-0.104 2.099-0.319 0.507-0.2 0.879-0.478 1.107-0.85 0.231-0.378 0.344-0.84 0.344-1.386 0-0.462-0.107-0.916-0.319-1.361-0.208-0.436-0.563-0.8-1.062-1.098-0.515-0.308-1.214-0.454-2.087-0.454-0.245 0-0.459 0.011-0.645 0.034v5.434z"/>
</g>
</svg>
