<svg width="512" height="106" viewBox="0 0 512 106" fill="none" xmlns="http://www.w3.org/2000/svg">
<path d="M25.0679 67.675C17.1326 67.675 10.9637 65.572 6.56141 61.366C2.18714 57.1319 0 51.1173 0 43.3221C0 35.2746 2.03291 29.1057 6.09874 24.8156C10.1646 20.4974 15.9689 18.3383 23.5117 18.3383C30.69 18.3383 36.2279 20.217 40.1255 23.9744C44.0512 27.7037 46.014 33.0874 46.014 40.1255V47.444H16.6138C16.726 50.1078 17.6934 52.1968 19.516 53.711C21.3666 55.2252 23.8762 55.9823 27.0448 55.9823C29.9329 55.9823 32.5827 55.7159 34.9942 55.1831C37.4337 54.6223 40.0694 53.683 42.9015 52.3651V64.184C40.3218 65.5019 37.658 66.4132 34.91 66.9179C32.1621 67.4227 28.8814 67.675 25.0679 67.675ZM24.1005 29.5263C22.1658 29.5263 20.5394 30.1432 19.2216 31.377C17.9317 32.5827 17.1746 34.4894 16.9503 37.0972H31.0826C31.0265 34.7979 30.3675 32.9613 29.1057 31.5873C27.872 30.2133 26.2036 29.5263 24.1005 29.5263Z" fill="black"/>
<path d="M71.7549 66.8338H55.3093V1.38799H71.7549V66.8338Z" fill="black"/>
<path d="M151.123 24.8997C151.123 31.7695 149.09 37.0832 145.024 40.8405C140.986 44.5699 135.238 46.4346 127.779 46.4346H123.11V66.8338H106.497V5.34166H127.779C135.546 5.34166 141.379 7.03809 145.276 10.431C149.174 13.8238 151.123 18.6467 151.123 24.8997ZM123.11 32.8912H126.139C128.634 32.8912 130.611 32.1901 132.069 30.7881C133.555 29.3861 134.299 27.4514 134.299 24.9838C134.299 20.8339 131.999 18.7589 127.401 18.7589H123.11V32.8912Z" fill="black"/>
<path d="M182.962 67.675C175.027 67.675 168.858 65.572 164.456 61.366C160.081 57.1319 157.894 51.1173 157.894 43.3221C157.894 35.2746 159.927 29.1057 163.993 24.8156C168.059 20.4974 173.863 18.3383 181.406 18.3383C188.584 18.3383 194.122 20.217 198.02 23.9744C201.946 27.7037 203.908 33.0874 203.908 40.1255V47.444H174.508C174.62 50.1078 175.588 52.1968 177.41 53.711C179.261 55.2252 181.771 55.9823 184.939 55.9823C187.827 55.9823 190.477 55.7159 192.889 55.1831C195.328 54.6223 197.964 53.683 200.796 52.3651V64.184C198.216 65.5019 195.552 66.4132 192.804 66.9179C190.056 67.4227 186.776 67.675 182.962 67.675ZM181.995 29.5263C180.06 29.5263 178.434 30.1432 177.116 31.377C175.826 32.5827 175.069 34.4894 174.845 37.0972H188.977C188.921 34.7979 188.262 32.9613 187 31.5873C185.766 30.2133 184.098 29.5263 181.995 29.5263Z" fill="black"/>
<path d="M241.973 18.3383C243.403 18.3383 244.763 18.4504 246.053 18.6748L246.978 18.843L245.506 34.3633C244.16 34.0268 242.295 33.8585 239.912 33.8585C236.323 33.8585 233.715 34.6857 232.089 36.3401C230.462 37.9664 229.649 40.3218 229.649 43.4062V66.8338H213.204V19.1795H225.443L228.009 26.7924H228.808C230.182 24.2688 232.089 22.2359 234.528 20.6937C236.996 19.1234 239.477 18.3383 241.973 18.3383Z" fill="black"/>
<path d="M270.195 66.8338H253.75V19.1795H270.195V66.8338ZM253.329 7.31849C253.329 4.85095 254.016 3.01432 255.39 1.80859C256.764 0.602864 258.979 0 262.036 0C265.092 0 267.321 0.616884 268.723 1.85065C270.125 3.08442 270.826 4.90703 270.826 7.31849C270.826 12.1414 267.896 14.5529 262.036 14.5529C256.231 14.5529 253.329 12.1414 253.329 7.31849Z" fill="black"/>
<path d="M327.187 42.9015C327.187 50.6967 325.084 56.7814 320.878 61.1557C316.7 65.5019 310.84 67.675 303.297 67.675C296.062 67.675 290.3 65.4458 286.01 60.9874C281.748 56.529 279.617 50.5004 279.617 42.9015C279.617 35.1344 281.706 29.1057 285.884 24.8156C290.09 20.4974 295.978 18.3383 303.549 18.3383C308.232 18.3383 312.368 19.3337 315.957 21.3246C319.546 23.3154 322.308 26.1755 324.243 29.9049C326.206 33.6062 327.187 37.9384 327.187 42.9015ZM296.315 42.9015C296.315 46.9954 296.862 50.1218 297.955 52.2809C299.049 54.412 300.885 55.4775 303.465 55.4775C306.017 55.4775 307.811 54.412 308.849 52.2809C309.914 50.1218 310.447 46.9954 310.447 42.9015C310.447 38.8357 309.914 35.7653 308.849 33.6903C307.783 31.6153 305.961 30.5778 303.381 30.5778C300.857 30.5778 299.049 31.6153 297.955 33.6903C296.862 35.7372 296.315 38.8076 296.315 42.9015ZM293.497 14.637V13.4172C297.815 8.7906 300.549 5.80432 301.699 4.45839C302.876 3.11246 303.844 1.90673 304.601 0.841206H322.602V1.72447C320.359 3.51904 317.275 5.80432 313.349 8.5803C309.424 11.3563 306.451 13.3752 304.432 14.637H293.497Z" fill="black"/>
<path d="M351.414 67.675C348.021 67.675 345.049 66.7076 342.497 64.7729C339.973 62.8381 338.011 59.992 336.609 56.2346C335.235 52.4772 334.548 48.0889 334.548 43.0697C334.548 35.3306 336.104 29.274 339.216 24.8997C342.329 20.5254 346.605 18.3383 352.045 18.3383C354.708 18.3383 357.036 18.8711 359.027 19.9366C361.046 21.0021 362.882 22.7967 364.537 25.3203H364.873C364.34 21.591 364.074 17.8616 364.074 14.1323V1.38799H380.646V66.8338H368.238L364.705 60.8192H364.074C361.242 65.3897 357.022 67.675 351.414 67.675ZM358.143 54.6784C360.779 54.6784 362.63 53.8512 363.695 52.1968C364.789 50.5425 365.378 47.9908 365.462 44.5419V43.238C365.462 39.032 364.859 36.0457 363.653 34.2791C362.448 32.4846 360.555 31.5873 357.975 31.5873C355.816 31.5873 354.134 32.6107 352.928 34.6577C351.75 36.6766 351.161 39.5647 351.161 43.3221C351.161 47.0234 351.764 49.8414 352.97 51.7762C354.176 53.711 355.9 54.6784 358.143 54.6784Z" fill="black"/>
<path d="M408.574 66.8338H392.128V19.1795H408.574V66.8338ZM391.708 7.31849C391.708 4.85095 392.395 3.01432 393.768 1.80859C395.142 0.602864 397.358 0 400.414 0C403.47 0 405.7 0.616884 407.102 1.85065C408.504 3.08442 409.205 4.90703 409.205 7.31849C409.205 12.1414 406.274 14.5529 400.414 14.5529C394.61 14.5529 391.708 12.1414 391.708 7.31849Z" fill="black"/>
<path d="M441.759 67.675C433.964 67.675 428.048 65.572 424.01 61.366C420 57.1599 417.995 51.1173 417.995 43.238C417.995 35.3306 420.168 29.2039 424.515 24.8576C428.861 20.5114 435.044 18.3383 443.063 18.3383C448.587 18.3383 453.789 19.544 458.668 21.9555L453.831 34.1109C451.84 33.2417 450.003 32.5547 448.321 32.0499C446.638 31.5172 444.886 31.2508 443.063 31.2508C440.399 31.2508 438.338 32.2883 436.88 34.3633C435.422 36.4382 434.693 39.3684 434.693 43.1539C434.693 50.7808 437.511 54.5943 443.147 54.5943C447.97 54.5943 452.597 53.1923 457.027 50.3882V63.469C452.793 66.273 447.704 67.675 441.759 67.675Z" fill="black"/>
<path d="M512 42.9015C512 50.6967 509.897 56.7814 505.691 61.1557C501.513 65.5019 495.653 67.675 488.11 67.675C480.875 67.675 475.113 65.4458 470.823 60.9874C466.561 56.529 464.43 50.5004 464.43 42.9015C464.43 35.1344 466.519 29.1057 470.697 24.8156C474.903 20.4974 480.791 18.3383 488.362 18.3383C493.045 18.3383 497.181 19.3337 500.77 21.3246C504.359 23.3154 507.121 26.1755 509.056 29.9049C511.019 33.6062 512 37.9384 512 42.9015ZM481.128 42.9015C481.128 46.9954 481.675 50.1218 482.768 52.2809C483.862 54.412 485.698 55.4775 488.278 55.4775C490.83 55.4775 492.624 54.412 493.662 52.2809C494.727 50.1218 495.26 46.9954 495.26 42.9015C495.26 38.8357 494.727 35.7653 493.662 33.6903C492.596 31.6153 490.774 30.5778 488.194 30.5778C485.67 30.5778 483.862 31.6153 482.768 33.6903C481.675 35.7372 481.128 38.8076 481.128 42.9015Z" fill="black"/>
<path d="M83.4782 103.484V79.6467H89.9185V98.2826H99.0978V103.484H83.4782Z" fill="#8F2208"/>
<path d="M117.538 103.484L116.364 99.0163H108.62L107.413 103.484H100.337L108.114 79.5489H116.707L124.581 103.484H117.538ZM115.027 93.7337L114 89.8207C113.761 88.9511 113.467 87.8261 113.12 86.4457C112.783 85.0652 112.56 84.0761 112.451 83.4783C112.353 84.0326 112.158 84.9457 111.864 86.2174C111.581 87.4891 110.946 89.9946 109.957 93.7337H115.027Z" fill="#8F2208"/>
<path d="M149.234 79.6467H156.44L148.63 103.484H141.049L133.272 79.6467H140.511L143.755 91.7283C144.429 94.4131 144.799 96.2826 144.864 97.337C144.94 96.5761 145.092 95.625 145.321 94.4837C145.549 93.3424 145.75 92.4457 145.924 91.7935L149.234 79.6467Z" fill="#8F2208"/>
<path d="M173.185 103.484H159.033V79.6467H173.185V84.8152H165.473V88.5652H172.614V93.7337H165.473V98.2337H173.185V103.484Z" fill="#8F2208"/>
<path d="M183.799 94.8098V103.484H177.359V79.6467H185.168C191.647 79.6467 194.886 81.9946 194.886 86.6902C194.886 89.4511 193.538 91.587 190.842 93.0978L197.788 103.484H190.484L185.429 94.8098H183.799ZM183.799 89.9674H185.005C187.255 89.9674 188.38 88.9728 188.38 86.9837C188.38 85.3424 187.277 84.5217 185.071 84.5217H183.799V89.9674Z" fill="#8F2208"/>
<path d="M220.19 91.0598C220.19 95.0381 219.092 98.1033 216.897 100.255C214.712 102.408 211.636 103.484 207.668 103.484H199.956V79.6467H208.206C212.033 79.6467 214.984 80.625 217.06 82.5815C219.147 84.538 220.19 87.3641 220.19 91.0598ZM213.505 91.288C213.505 89.1033 213.071 87.4837 212.201 86.4294C211.342 85.375 210.033 84.8478 208.272 84.8478H206.397V98.2011H207.831C209.788 98.2011 211.223 97.6359 212.136 96.5054C213.049 95.3641 213.505 93.625 213.505 91.288Z" fill="#8F2208"/>
<path d="M239.103 103.484L237.929 99.0163H230.185L228.978 103.484H221.902L229.679 79.5489H238.272L246.147 103.484H239.103ZM236.592 93.7337L235.565 89.8207C235.326 88.9511 235.033 87.8261 234.685 86.4457C234.348 85.0652 234.125 84.0761 234.016 83.4783C233.918 84.0326 233.723 84.9457 233.429 86.2174C233.147 87.4891 232.511 89.9946 231.522 93.7337H236.592Z" fill="#8F2208"/>
<path d="M268.973 91.0598C268.973 95.0381 267.875 98.1033 265.679 100.255C263.495 102.408 260.418 103.484 256.451 103.484H248.739V79.6467H256.989C260.815 79.6467 263.766 80.625 265.842 82.5815C267.929 84.538 268.973 87.3641 268.973 91.0598ZM262.288 91.288C262.288 89.1033 261.853 87.4837 260.984 86.4294C260.125 85.375 258.815 84.8478 257.054 84.8478H255.179V98.2011H256.614C258.571 98.2011 260.005 97.6359 260.918 96.5054C261.831 95.3641 262.288 93.625 262.288 91.288Z" fill="#8F2208"/>
<path d="M281.935 103.484V79.6467H288.408V103.484H281.935Z" fill="#8F2208"/>
<path d="M303.962 103.484L299.087 86.3152H298.94C299.168 89.2391 299.283 91.5109 299.283 93.1304V103.484H293.576V79.6467H302.152L307.125 96.5707H307.255L312.13 79.6467H320.723V103.484H314.804V93.0326C314.804 92.4891 314.81 91.8859 314.821 91.2228C314.842 90.5598 314.918 88.9348 315.049 86.3478H314.902L310.092 103.484H303.962Z" fill="#8F2208"/>
<path d="M343.158 87.2283C343.158 89.8913 342.37 91.9511 340.793 93.4076C339.228 94.8533 337 95.5761 334.109 95.5761H332.299V103.484H325.859V79.6467H334.109C337.12 79.6467 339.38 80.3044 340.891 81.6196C342.402 82.9348 343.158 84.8044 343.158 87.2283ZM332.299 90.3261H333.473C334.44 90.3261 335.206 90.0544 335.772 89.5109C336.348 88.9674 336.636 88.2174 336.636 87.2609C336.636 85.6522 335.745 84.8478 333.962 84.8478H332.299V90.3261Z" fill="#8F2208"/>
<path d="M353.397 94.8098V103.484H346.956V79.6467H354.766C361.245 79.6467 364.484 81.9946 364.484 86.6902C364.484 89.4511 363.136 91.587 360.44 93.0978L367.386 103.484H360.081L355.027 94.8098H353.397ZM353.397 89.9674H354.603C356.853 89.9674 357.978 88.9728 357.978 86.9837C357.978 85.3424 356.875 84.5217 354.668 84.5217H353.397V89.9674Z" fill="#8F2208"/>
<path d="M383.706 103.484H369.554V79.6467H383.706V84.8152H375.995V88.5652H383.136V93.7337H375.995V98.2337H383.706V103.484Z" fill="#8F2208"/>
<path d="M403.467 96.2446C403.467 97.7228 403.092 99.0381 402.342 100.19C401.592 101.332 400.511 102.223 399.098 102.864C397.685 103.495 396.027 103.81 394.125 103.81C392.538 103.81 391.206 103.701 390.13 103.484C389.054 103.255 387.935 102.864 386.772 102.31V96.5707C388 97.2011 389.277 97.6957 390.603 98.0544C391.929 98.4022 393.147 98.5761 394.255 98.5761C395.212 98.5761 395.913 98.4131 396.359 98.087C396.804 97.75 397.027 97.3207 397.027 96.7989C397.027 96.4728 396.935 96.1902 396.75 95.9511C396.576 95.7011 396.288 95.4511 395.886 95.2011C395.495 94.9511 394.44 94.4402 392.723 93.6685C391.168 92.962 390 92.2772 389.217 91.6141C388.446 90.9511 387.87 90.1902 387.489 89.3315C387.12 88.4728 386.935 87.4565 386.935 86.2826C386.935 84.087 387.734 82.375 389.331 81.1467C390.929 79.9185 393.125 79.3044 395.918 79.3044C398.386 79.3044 400.902 79.875 403.467 81.0163L401.495 85.9891C399.266 84.9674 397.342 84.4565 395.723 84.4565C394.886 84.4565 394.277 84.6033 393.897 84.8967C393.516 85.1902 393.326 85.5544 393.326 85.9891C393.326 86.4565 393.565 86.875 394.043 87.2446C394.533 87.6141 395.848 88.288 397.989 89.2663C400.043 90.1902 401.467 91.1848 402.261 92.25C403.065 93.3044 403.467 94.6359 403.467 96.2446Z" fill="#8F2208"/>
<path d="M421.777 103.484L420.603 99.0163H412.859L411.652 103.484H404.576L412.353 79.5489H420.946L428.821 103.484H421.777ZM419.266 93.7337L418.239 89.8207C418 88.9511 417.706 87.8261 417.359 86.4457C417.022 85.0652 416.799 84.0761 416.69 83.4783C416.592 84.0326 416.397 84.9457 416.103 86.2174C415.821 87.4891 415.185 89.9946 414.196 93.7337H419.266Z" fill="#8F2208"/>
<rect y="77.9131" width="73.7391" height="5.56522" fill="#C9B473"/>
<rect y="89.0435" width="73.7391" height="5.56522" fill="#FF8A00"/>
<rect y="100.174" width="73.7391" height="5.56522" fill="#8F2208"/>
<rect x="438.261" y="77.9131" width="73.7391" height="5.56522" fill="#C9B473"/>
<rect x="438.261" y="89.0435" width="73.7391" height="5.56522" fill="#FF8A00"/>
<rect x="438.261" y="100.174" width="73.7391" height="5.56522" fill="#8F2208"/>
</svg>
