<?xml version="1.0" encoding="UTF-8" standalone="no"?><!-- Generator: Gravit.io --><svg xmlns="http://www.w3.org/2000/svg" xmlns:xlink="http://www.w3.org/1999/xlink" style="isolation:isolate" viewBox="0 0 324 238" width="324pt" height="238pt"><defs><clipPath id="_clipPath_HamsLmSCY2h1zdqZSOzCUK85SKLWmA37"><rect width="324" height="238"/></clipPath></defs><g clip-path="url(#_clipPath_HamsLmSCY2h1zdqZSOzCUK85SKLWmA37)"><g><path d=" M 181.384 0.008 C 181.864 -0.044 182.334 0.168 182.614 0.561 L 184.741 3.546 C 185.048 3.978 185.071 4.552 184.798 5.008 L 181.163 11.085 L 181.163 33.576 L 190.918 42.545 L 199.793 50.23 L 213.641 48.188 C 213.971 48.139 214.31 48.216 214.586 48.404 L 230.05 58.882 L 239.935 60.121 C 240.231 60.158 240.506 60.292 240.716 60.503 L 248.43 68.239 L 264.497 69.065 C 264.91 69.086 265.29 69.298 265.527 69.638 L 272.328 79.443 C 272.426 79.583 272.494 79.74 272.533 79.905 L 276.359 96.532 C 276.495 97.118 276.22 97.722 275.692 98.008 L 271.81 100.104 L 275.965 103.95 C 276.199 104.168 276.349 104.462 276.384 104.78 L 277.957 118.574 L 310.834 120.222 C 311.202 120.241 311.546 120.41 311.785 120.689 C 312.024 120.969 312.136 121.334 312.098 121.7 L 310.866 133.216 L 314.674 140.09 L 321.018 142.475 C 321.472 142.646 321.798 143.051 321.87 143.532 L 323.995 158.027 C 324.025 158.231 324.007 158.439 323.943 158.636 L 316.448 181.6 L 319.221 187.954 C 319.379 188.317 319.369 188.733 319.192 189.088 C 319.014 189.442 318.687 189.699 318.302 189.79 L 311.075 191.496 C 310.678 191.589 310.259 191.496 309.938 191.243 C 309.619 190.99 309.431 190.603 309.431 190.195 L 309.431 184.098 L 293.39 173.642 L 262.083 174.898 L 248.684 178.562 L 238.081 194.509 L 233.869 228.301 C 233.805 228.824 233.439 229.259 232.936 229.414 C 232.434 229.569 231.886 229.414 231.539 229.02 L 225.609 222.281 L 207.976 223.853 L 202.752 237.151 C 202.554 237.652 202.078 237.985 201.542 238 C 201.005 238.012 200.511 237.704 200.288 237.215 L 194.268 223.932 L -0.009 223.932 L -0.009 221.258 L 195.129 221.258 C 195.655 221.258 196.131 221.564 196.349 222.042 L 201.419 233.231 L 205.79 222.104 C 205.976 221.634 206.411 221.308 206.915 221.263 L 226.046 219.557 C 226.47 219.519 226.887 219.685 227.169 220.006 L 231.583 225.023 L 235.466 193.865 C 235.493 193.66 235.566 193.464 235.68 193.291 L 246.733 176.665 C 246.913 176.396 247.182 176.2 247.494 176.115 L 261.525 172.278 C 261.621 172.252 261.723 172.236 261.823 172.232 L 293.709 170.953 C 293.985 170.942 294.26 171.017 294.492 171.169 L 311.498 182.252 C 311.877 182.5 312.106 182.921 312.106 183.374 L 312.106 188.505 L 316.129 187.556 L 313.794 182.203 C 313.664 181.903 313.648 181.564 313.749 181.252 L 321.303 158.104 L 319.338 144.7 L 313.273 142.42 C 312.976 142.308 312.728 142.094 312.574 141.816 L 308.322 134.142 C 308.191 133.902 308.134 133.626 308.164 133.353 L 309.289 122.822 L 276.691 121.188 C 276.037 121.155 275.502 120.654 275.429 120.004 L 273.783 105.576 L 268.622 100.797 C 268.305 100.504 268.15 100.076 268.203 99.648 C 268.257 99.22 268.515 98.844 268.895 98.639 L 273.525 96.139 L 269.984 80.756 L 263.703 71.702 L 247.778 70.883 C 247.448 70.866 247.134 70.726 246.901 70.492 L 239.147 62.717 L 229.399 61.495 C 229.191 61.469 228.991 61.394 228.816 61.275 L 213.517 50.909 L 199.577 52.965 C 199.192 53.022 198.8 52.908 198.506 52.653 L 189.153 44.553 C 189.143 44.544 189.134 44.536 189.123 44.527 L 178.92 35.148 C 178.644 34.894 178.489 34.537 178.489 34.163 L 178.489 10.716 C 178.489 10.474 178.553 10.237 178.678 10.029 L 182.054 4.385 L 180.89 2.75 L 162.023 4.762 L 140.62 19.491 C 140.397 19.645 140.133 19.727 139.862 19.727 L 131.018 19.727 L 123.746 26.209 C 123.488 26.439 123.15 26.56 122.804 26.547 L 103.699 25.795 L 113.35 40.683 L 111.106 42.138 L 100.052 25.085 C 99.78 24.666 99.765 24.131 100.012 23.697 C 100.259 23.263 100.728 23.002 101.227 23.022 L 122.37 23.853 L 129.619 17.392 C 129.864 17.173 130.181 17.053 130.509 17.053 L 139.446 17.053 L 160.786 2.367 C 160.969 2.241 161.181 2.163 161.402 2.139 L 181.384 0.008 Z " fill-rule="evenodd" fill="rgb(24,92,67)"/><circle vector-effect="non-scaling-stroke" cx="221.12190894401422" cy="165.98736339435797" r="7.064185720391407" fill="rgb(24,92,67)"/><path d=" M 146.412 52.184 L 146.412 57.113 C 153.3 57.691 154.249 58.478 154.464 66.122 L 154.464 159.757 C 154.011 166.534 153.486 167.522 146.799 168.052 L 146.799 172.623 L 179.476 172.623 C 193.263 172.585 204.638 157.97 204.638 139.029 C 204.638 123.661 198.536 112.423 186.611 107.296 C 197.876 101.495 201.716 94.275 201.716 79.703 C 201.716 62.593 192.651 52.184 177.539 52.184 L 146.412 52.184 Z  M 170.425 62.898 L 170.425 106.149 C 183.095 106.075 185.836 98.985 185.836 81.772 C 185.836 71.584 184.944 62.593 180.662 59.168 C 176.381 55.743 170.425 57.456 170.425 62.898 Z  M 170.425 111.584 L 170.038 153.823 C 169.983 163.256 171.921 167.145 176.317 167.546 C 185.192 166.866 189.016 157.391 189.016 141.888 C 189.016 126.385 188.629 111.584 170.425 111.584 Z " fill-rule="evenodd" fill="rgb(24,92,67)"/><circle vector-effect="non-scaling-stroke" cx="130.35704889367133" cy="165.98736339435797" r="7.064185720391407" fill="rgb(24,92,67)"/><path d=" M 113.018 51.89 L 79.623 51.89 L 79.623 56.817 C 85.2 56.938 88.426 58.719 88.678 64.534 L 88.678 158.551 C 88.802 165.033 86.405 167.627 79.623 167.696 L 79.623 172.623 L 113.018 172.623 L 113.018 167.339 C 106.353 167.992 104.589 164.723 103.963 158.551 L 103.963 64.534 C 104.025 60.242 105.302 56.946 113.018 56.817 L 113.018 51.89 Z " fill="rgb(24,92,67)"/><circle vector-effect="non-scaling-stroke" cx="62.7122043218843" cy="165.98736339435797" r="7.064185720391418" fill="rgb(24,92,67)"/><path d=" M -0.009 131.312 L 2.84 131.312 C 3.637 152.852 12.217 169.945 22.254 169.945 C 33.016 169.945 41.446 148.764 27.893 132.609 C 20.063 123.275 1.638 114.675 0.389 88.811 C -0.806 64.04 9.616 49.321 20.379 49.321 C 31.141 49.321 32.219 55.009 36.205 55.009 C 38.597 55.009 39.851 52.193 39.851 49.321 L 43.099 49.321 L 43.099 87.817 L 39.851 87.817 C 39.851 74.175 32.278 55.783 21.516 55.783 C 10.753 55.783 5.985 78.434 18.829 90.422 C 35.992 106.441 45.801 111.829 45.801 137.088 C 45.801 163.295 34.67 175.192 22.254 176.048 C 13.484 176.048 9.498 169.366 5.911 169.366 C 3.519 169.366 2.84 172.817 2.84 176.048 L -0.009 176.048 L -0.009 131.312 Z " fill="rgb(24,92,67)"/><path d=" M 16.838 202.687 C 16.716 205.414 15.941 207.48 14.512 208.883 C 13.083 210.286 11.067 210.987 8.464 210.987 C 5.728 210.987 3.629 210.099 2.167 208.325 C 0.716 206.537 -0.009 203.995 -0.009 200.697 L -0.009 196.67 C -0.009 193.38 0.744 190.849 2.25 189.073 C 3.757 187.287 5.85 186.394 8.531 186.394 C 11.167 186.394 13.166 187.123 14.529 188.581 C 15.902 190.038 16.683 192.133 16.871 194.86 L 11.97 194.86 C 11.926 193.174 11.66 192.011 11.173 191.375 C 10.696 190.73 9.816 190.405 8.531 190.405 C 7.224 190.405 6.299 190.86 5.756 191.771 C 5.213 192.669 4.925 194.154 4.892 196.226 L 4.892 200.745 C 4.892 203.125 5.158 204.756 5.69 205.644 C 6.232 206.532 7.157 206.976 8.464 206.976 C 9.749 206.976 10.635 206.669 11.123 206.056 C 11.61 205.432 11.887 204.307 11.953 202.687 L 16.838 202.687 Z " fill="rgb(24,92,67)"/><path d=" M 30.664 194.432 C 31.683 193.174 32.934 192.543 34.418 192.543 C 36.058 192.543 37.304 193.113 38.157 194.252 C 39.01 195.391 39.442 197.09 39.453 199.349 L 39.453 210.659 L 34.734 210.659 L 34.734 199.397 C 34.734 198.356 34.568 197.606 34.236 197.146 C 33.914 196.675 33.388 196.44 32.657 196.44 C 31.805 196.44 31.14 196.828 30.664 197.606 L 30.664 210.659 L 25.962 210.659 L 25.962 185.408 L 30.664 185.408 L 30.664 194.432 Z " fill="rgb(24,92,67)"/><path d=" M 58.13 209.031 C 57.155 210.336 55.848 210.987 54.209 210.987 C 52.558 210.987 51.307 210.429 50.454 209.311 C 49.601 208.183 49.174 206.544 49.174 204.396 L 49.174 192.871 L 53.876 192.871 L 53.876 204.51 C 53.898 206.241 54.48 207.108 55.621 207.108 C 56.695 207.108 57.471 206.648 57.947 205.728 L 57.947 192.871 L 62.682 192.871 L 62.682 210.659 L 58.263 210.659 L 58.13 209.031 Z " fill="rgb(24,92,67)"/><path d=" M 71.872 201.189 C 71.872 198.274 72.365 196.105 73.351 194.68 C 74.337 193.256 75.799 192.543 77.737 192.543 C 79.31 192.543 80.561 193.243 81.492 194.646 L 81.791 192.871 L 85.895 192.871 L 85.895 217.498 L 81.176 217.498 L 81.176 209.277 C 80.301 210.418 79.149 210.987 77.72 210.987 C 75.826 210.987 74.381 210.265 73.384 208.817 C 72.398 207.361 71.894 205.266 71.872 202.539 L 71.872 201.189 Z  M 76.591 202.357 C 76.591 204.077 76.779 205.305 77.155 206.04 C 77.532 206.762 78.175 207.124 79.083 207.124 C 80.035 207.124 80.733 206.757 81.176 206.024 L 81.176 197.558 C 80.733 196.789 80.041 196.406 79.099 196.406 C 78.202 196.406 77.56 196.762 77.172 197.474 C 76.796 198.187 76.602 199.376 76.591 201.041 L 76.591 202.357 Z " fill="rgb(24,92,67)"/><path d=" M 104.721 209.031 C 103.747 210.336 102.44 210.987 100.8 210.987 C 99.15 210.987 97.898 210.429 97.045 209.311 C 96.192 208.183 95.766 206.544 95.766 204.396 L 95.766 192.871 L 100.468 192.871 L 100.468 204.51 C 100.49 206.241 101.072 207.108 102.212 207.108 C 103.287 207.108 104.062 206.648 104.538 205.728 L 104.538 192.871 L 109.274 192.871 L 109.274 210.659 L 104.854 210.659 L 104.721 209.031 Z " fill="rgb(24,92,67)"/><path d=" M 124.03 210.659 L 119.311 210.659 L 119.311 192.871 L 124.03 192.871 L 124.03 210.659 Z  M 119.095 188.269 C 119.095 187.545 119.328 186.954 119.793 186.494 C 120.258 186.032 120.878 185.802 121.654 185.802 C 122.429 185.802 123.049 186.032 123.515 186.494 C 123.98 186.954 124.212 187.545 124.212 188.269 C 124.212 188.981 123.98 189.573 123.515 190.043 C 123.06 190.516 122.44 190.751 121.654 190.751 C 120.867 190.751 120.241 190.516 119.776 190.043 C 119.322 189.573 119.095 188.981 119.095 188.269 Z " fill="rgb(24,92,67)"/><path d=" M 142.092 205.892 C 142.092 205.496 141.898 205.136 141.51 204.806 C 141.134 204.468 140.286 204.011 138.968 203.442 C 137.03 202.663 135.695 201.858 134.964 201.025 C 134.244 200.192 133.884 199.157 133.884 197.918 C 133.884 196.361 134.449 195.079 135.579 194.072 C 136.72 193.052 138.226 192.543 140.098 192.543 C 142.07 192.543 143.648 193.047 144.833 194.054 C 146.018 195.063 146.611 196.417 146.611 198.116 L 141.909 198.116 C 141.909 196.67 141.3 195.946 140.081 195.946 C 139.583 195.946 139.173 196.099 138.852 196.406 C 138.531 196.712 138.37 197.14 138.37 197.688 C 138.37 198.083 138.547 198.433 138.902 198.74 C 139.256 199.035 140.092 199.463 141.411 200.023 C 143.327 200.724 144.678 201.508 145.465 202.373 C 146.262 203.229 146.661 204.341 146.661 205.71 C 146.661 207.3 146.057 208.577 144.85 209.541 C 143.642 210.506 142.058 210.987 140.098 210.987 C 138.78 210.987 137.617 210.736 136.609 210.231 C 135.601 209.716 134.809 209.005 134.233 208.094 C 133.668 207.184 133.386 206.204 133.386 205.152 L 137.855 205.152 C 137.877 205.963 138.065 206.571 138.42 206.976 C 138.785 207.382 139.378 207.586 140.198 207.586 C 141.46 207.586 142.092 207.02 142.092 205.892 Z " fill="rgb(24,92,67)"/><path d=" M 164.59 210.659 C 164.457 210.385 164.324 209.925 164.191 209.277 C 163.35 210.418 162.209 210.987 160.769 210.987 C 159.262 210.987 158.011 210.495 157.014 209.507 C 156.028 208.522 155.535 207.245 155.535 205.678 C 155.535 203.815 156.133 202.373 157.329 201.355 C 158.537 200.335 160.27 199.815 162.53 199.793 L 163.959 199.793 L 163.959 198.362 C 163.959 197.563 163.82 196.998 163.543 196.67 C 163.266 196.34 162.862 196.176 162.33 196.176 C 161.156 196.176 160.569 196.855 160.569 198.214 L 155.867 198.214 C 155.867 196.57 156.488 195.217 157.728 194.154 C 158.98 193.079 160.558 192.543 162.463 192.543 C 164.435 192.543 165.958 193.052 167.032 194.072 C 168.118 195.079 168.661 196.527 168.661 198.411 L 168.661 206.78 C 168.683 208.313 168.904 209.515 169.325 210.379 L 169.325 210.659 L 164.59 210.659 Z  M 161.815 207.338 C 162.336 207.338 162.779 207.234 163.144 207.026 C 163.51 206.817 163.781 206.571 163.959 206.286 L 163.959 202.587 L 162.829 202.587 C 162.031 202.587 161.4 202.84 160.935 203.343 C 160.481 203.847 160.254 204.521 160.254 205.366 C 160.254 206.68 160.774 207.338 161.815 207.338 Z " fill="rgb(24,92,67)"/><path d=" M 185.028 207.124 C 186.39 207.124 187.084 206.249 187.105 204.494 L 191.524 204.494 C 191.503 206.434 190.899 208.001 189.713 209.195 C 188.528 210.39 187 210.987 185.128 210.987 C 182.812 210.987 181.045 210.276 179.828 208.851 C 178.61 207.425 177.989 205.327 177.967 202.555 L 177.967 201.141 C 177.967 198.346 178.565 196.213 179.762 194.746 C 180.969 193.277 182.746 192.543 185.094 192.543 C 187.078 192.543 188.64 193.151 189.779 194.368 C 190.92 195.573 191.503 197.288 191.524 199.513 L 187.105 199.513 C 187.094 198.515 186.928 197.748 186.606 197.212 C 186.285 196.675 185.754 196.406 185.012 196.406 C 184.192 196.406 183.605 196.696 183.251 197.278 C 182.896 197.846 182.707 198.959 182.685 200.615 L 182.685 202.423 C 182.685 203.87 182.757 204.883 182.901 205.464 C 183.046 206.035 183.284 206.455 183.616 206.73 C 183.948 206.994 184.418 207.124 185.028 207.124 Z " fill="rgb(24,92,67)"/><path d=" M 209.188 210.659 C 209.054 210.385 208.922 209.925 208.789 209.277 C 207.947 210.418 206.806 210.987 205.366 210.987 C 203.859 210.987 202.608 210.495 201.611 209.507 C 200.625 208.522 200.133 207.245 200.133 205.678 C 200.133 203.815 200.731 202.373 201.927 201.355 C 203.134 200.335 204.868 199.815 207.127 199.793 L 208.557 199.793 L 208.557 198.362 C 208.557 197.563 208.418 196.998 208.142 196.67 C 207.863 196.34 207.461 196.176 206.928 196.176 C 205.754 196.176 205.168 196.855 205.168 198.214 L 200.465 198.214 C 200.465 196.57 201.085 195.217 202.326 194.154 C 203.578 193.079 205.155 192.543 207.061 192.543 C 209.033 192.543 210.555 193.052 211.63 194.072 C 212.716 195.079 213.258 196.527 213.258 198.411 L 213.258 206.78 C 213.281 208.313 213.502 209.515 213.923 210.379 L 213.923 210.659 L 209.188 210.659 Z  M 206.414 207.338 C 206.935 207.338 207.377 207.234 207.742 207.026 C 208.108 206.817 208.379 206.571 208.557 206.286 L 208.557 202.587 L 207.427 202.587 C 206.63 202.587 205.999 202.84 205.533 203.343 C 205.079 203.847 204.851 204.521 204.851 205.366 C 204.851 206.68 205.373 207.338 206.414 207.338 Z " fill="rgb(24,92,67)"/></g></g></svg>